<?xml version="1.0" encoding="UTF-8"?><!DOCTYPE svg PUBLIC "-//W3C//DTD SVG 1.1//EN" "http://www.w3.org/Graphics/SVG/1.1/DTD/svg11.dtd"><svg xmlns="http://www.w3.org/2000/svg" xmlns:xlink="http://www.w3.org/1999/xlink" version="1.1" id="Relationship" x="0px" y="0px" width="512px" height="512px" viewBox="0 0 512 512" xml:space="preserve"><linearGradient id="SVGID_1_" gradientUnits="userSpaceOnUse" x1="67.9395" y1="392.2939" x2="184.4797" y2="275.7537"><stop offset="0" stop-color="#B3B3B3"/><stop offset="0.0161" stop-color="#B7B7B7"/><stop offset="0.152" stop-color="#D1D1D1"/><stop offset="0.3016" stop-color="#E5E5E5"/><stop offset="0.4698" stop-color="#F4F4F4"/><stop offset="0.6721" stop-color="#FCFCFC"/><stop offset="1" stop-color="#FFF"/></linearGradient><path fill="url(#SVGID_1_)" d="M208.166 368.605H44.251v-49.008c0-26.878 21.789-48.666 48.667-48.666h66.581c26.878 0 48.667 21.788 48.667 48.666v49.008z"/><linearGradient id="SVGID_2_" gradientUnits="userSpaceOnUse" x1="92.3213" y1="243.1074" x2="170.2849" y2="165.1438"><stop offset="0" stop-color="#B3B3B3"/><stop offset="0.0161" stop-color="#B7B7B7"/><stop offset="0.152" stop-color="#D1D1D1"/><stop offset="0.3016" stop-color="#E5E5E5"/><stop offset="0.4698" stop-color="#F4F4F4"/><stop offset="0.6721" stop-color="#FCFCFC"/><stop offset="1" stop-color="#FFF"/></linearGradient><circle fill="url(#SVGID_2_)" cx="131.303" cy="204.125" r="55.129"/><path fill="#3F5EAB" d="M467.749 368.605H303.834v-49.008c0-26.878 21.789-48.666 48.667-48.666h66.581c26.878 0 48.667 21.788 48.667 48.666v49.008z"/><circle fill="#3F5EAB" cx="390.886" cy="204.125" r="55.129"/><linearGradient id="SVGID_3_" gradientUnits="userSpaceOnUse" x1="97.2925" y1="435.2168" x2="1008.9116" y2="435.2168"><stop offset="0" stop-color="#FF7BAC"/><stop offset="0.0431" stop-color="#FA7DAE"/><stop offset="0.0924" stop-color="#EC85B2"/><stop offset="0.1447" stop-color="#D590BA"/><stop offset="0.1991" stop-color="#B5A1C4"/><stop offset="0.2553" stop-color="#8CB7D1"/><stop offset="0.3128" stop-color="#59D1E2"/><stop offset="0.3703" stop-color="#1FEFF5"/><stop offset="0.398" stop-color="#0FF"/></linearGradient><path fill="url(#SVGID_3_)" d="M409.754 381.531c-6.459-4.252-15.14-2.465-19.392 3.994-28.103 42.685-75.338 68.168-126.354 68.168-31.121 0-60.731-9.315-85.74-26.625l40.025 4-25.534-31.186-66.799-6.658-6.658 66.799 25.533 31.188 5.025-50.574c32.035 26.595 71.92 41.057 114.147 41.057 60.465 0 116.442-30.195 149.741-80.771 4.253-6.458 2.464-15.14-3.994-19.392z"/><linearGradient id="SVGID_4_" gradientUnits="userSpaceOnUse" x1="430.7236" y1="76.7827" x2="-480.8985" y2="76.7826"><stop offset="0" stop-color="#FF7BAC"/><stop offset="0.0431" stop-color="#FA7DAE"/><stop offset="0.0924" stop-color="#EC85B2"/><stop offset="0.1447" stop-color="#D590BA"/><stop offset="0.1991" stop-color="#B5A1C4"/><stop offset="0.2553" stop-color="#8CB7D1"/><stop offset="0.3128" stop-color="#59D1E2"/><stop offset="0.3703" stop-color="#1FEFF5"/><stop offset="0.398" stop-color="#0FF"/></linearGradient><path fill="url(#SVGID_4_)" d="M383.181 20.789l-5.026 50.574c-32.034-26.595-71.919-41.057-114.146-41.057-60.464 0-116.442 30.194-149.742 80.771-4.252 6.458-2.463 15.14 3.994 19.392a13.934 13.934 0 0 0 7.687 2.309c4.552 0 9.016-2.217 11.706-6.303 28.104-42.685 75.34-68.168 126.355-68.168 31.121 0 60.731 9.316 85.74 26.626l-40.025-4.001 25.533 31.187 66.8 6.657 6.658-66.799-25.534-31.188z"/><metadata><rdf:RDF xmlns:rdf="http://www.w3.org/1999/02/22-rdf-syntax-ns#" xmlns:rdfs="http://www.w3.org/2000/01/rdf-schema#" xmlns:dc="http://purl.org/dc/elements/1.1/"><rdf:Description about="https://iconscout.com/legal#licenses" dc:title="relationship,user,avatar,rotate,exchange,employee" dc:description="relationship,user,avatar,rotate,exchange,employee" dc:publisher="Iconscout" dc:date="2018-07-14" dc:format="image/svg+xml" dc:language="en"><dc:creator><rdf:Bag><rdf:li>Chanut Is Industries</rdf:li></rdf:Bag></dc:creator></rdf:Description></rdf:RDF></metadata></svg>